HIERARCHY
ROOT Hips
{
  OFFSET 0.474958 101.652 1.55445
  CHANNELS 6 Xposition Yposition Zposition Zrotation Xrotation Yrotation
  JOINT Spine
  {
    OFFSET 0 10.1816 0.1315
    CHANNELS 6 Xposition Yposition Zposition Zrotation Xrotation Yrotation
    JOINT Spine1
    {
      OFFSET 0 10.0835 -1.0008
      CHANNELS 6 Xposition Yposition Zposition Zrotation Xrotation Yrotation
      JOINT Spine2
      {
        OFFSET 0 9.1 -1.3734
        CHANNELS 6 Xposition Yposition Zposition Zrotation Xrotation Yrotation
        JOINT Neck
        {
          OFFSET 0 16.6717 -2.5162
          CHANNELS 6 Xposition Yposition Zposition Zrotation Xrotation Yrotation
          JOINT Head
          {
            OFFSET 0 9.6179 1.685
            CHANNELS 6 Xposition Yposition Zposition Zrotation Xrotation Yrotation
            JOINT HeadTop_End
            {
              OFFSET 0 17.8152 2.585
              CHANNELS 6 Xposition Yposition Zposition Zrotation Xrotation Yrotation
              End Site
              {
                OFFSET 0 0 0
              }
            }
            JOINT LeftEye
            {
              OFFSET 3.0676 6.4095 9.2836
              CHANNELS 6 Xposition Yposition Zposition Zrotation Xrotation Yrotation
              End Site
              {
                OFFSET 0 0 0
              }
            }
            JOINT RightEye
            {
              OFFSET -3.0676 6.4095 9.2835
              CHANNELS 6 Xposition Yposition Zposition Zrotation Xrotation Yrotation
              End Site
              {
                OFFSET 0 0 0
              }
            }
          }
        }
        JOINT LeftShoulder
        {
          OFFSET 4.5704 10.946 -2.628
          CHANNELS 6 Xposition Yposition Zposition Zrotation Xrotation Yrotation
          JOINT LeftArm
          {
            OFFSET 10.5924 -0.5246 -2.2321
            CHANNELS 6 Xposition Yposition Zposition Zrotation Xrotation Yrotation
            JOINT LeftForeArm
            {
              OFFSET 27.8415 -0.0001 0
              CHANNELS 6 Xposition Yposition Zposition Zrotation Xrotation Yrotation
              JOINT LeftHand
              {
                OFFSET 28.3288 0 0
                CHANNELS 6 Xposition Yposition Zposition Zrotation Xrotation Yrotation
                JOINT LeftHandThumb1
                {
                  OFFSET 2.4661 -1.575 2.6824
                  CHANNELS 6 Xposition Yposition Zposition Zrotation Xrotation Yrotation
                  JOINT LeftHandThumb2
                  {
                    OFFSET 3.2298 -1.8647 1.8647
                    CHANNELS 6 Xposition Yposition Zposition Zrotation Xrotation Yrotation
                    JOINT LeftHandThumb3
                    {
                      OFFSET 2.6526 -1.5315 1.5315
                      CHANNELS 6 Xposition Yposition Zposition Zrotation Xrotation Yrotation
                      End Site
                      {
                        OFFSET 1.9546 -1.1285 1.1285
                      }
                    }
                  }
                }
                JOINT LeftHandIndex1
                {
                  OFFSET 9.1093 -0.5171 2.2601
                  CHANNELS 6 Xposition Yposition Zposition Zrotation Xrotation Yrotation
                  JOINT LeftHandIndex2
                  {
                    OFFSET 3.6764 0 0
                    CHANNELS 6 Xposition Yposition Zposition Zrotation Xrotation Yrotation
                    JOINT LeftHandIndex3
                    {
                      OFFSET 2.8831 0 0
                      CHANNELS 6 Xposition Yposition Zposition Zrotation Xrotation Yrotation
                      End Site
                      {
                        OFFSET 2.3927 0 0
                      }
                    }
                  }
                }
                JOINT LeftHandMiddle1
                {
                  OFFSET 9.5334 0 0
                  CHANNELS 6 Xposition Yposition Zposition Zrotation Xrotation Yrotation
                  JOINT LeftHandMiddle2
                  {
                    OFFSET 3.6982 0 0
                    CHANNELS 6 Xposition Yposition Zposition Zrotation Xrotation Yrotation
                    JOINT LeftHandMiddle3
                    {
                      OFFSET 2.9509 0 0
                      CHANNELS 6 Xposition Yposition Zposition Zrotation Xrotation Yrotation
                      End Site
                      {
                        OFFSET 2.8339 0 0
                      }
                    }
                  }
                }
                JOINT LeftHandRing1
                {
                  OFFSET 9.1045 -0.0439 -1.8651
                  CHANNELS 6 Xposition Yposition Zposition Zrotation Xrotation Yrotation
                  JOINT LeftHandRing2
                  {
                    OFFSET 3.154 0 0
                    CHANNELS 6 Xposition Yposition Zposition Zrotation Xrotation Yrotation
                    JOINT LeftHandRing3
                    {
                      OFFSET 2.9377 0 0
                      CHANNELS 6 Xposition Yposition Zposition Zrotation Xrotation Yrotation
                      End Site
                      {
                        OFFSET 2.6475 0 0
                      }
                    }
                  }
                }
                JOINT LeftHandPinky1
                {
                  OFFSET 8.0778 -0.4887 -3.8061
                  CHANNELS 6 Xposition Yposition Zposition Zrotation Xrotation Yrotation
                  JOINT LeftHandPinky2
                  {
                    OFFSET 3.6 0 0
                    CHANNELS 6 Xposition Yposition Zposition Zrotation Xrotation Yrotation
                    JOINT LeftHandPinky3
                    {
                      OFFSET 2.1142 0 0
                      CHANNELS 6 Xposition Yposition Zposition Zrotation Xrotation Yrotation
                      End Site
                      {
                        OFFSET 1.9757 0 0
                      }
                    }
                  }
                }
              }
            }
          }
        }
        JOINT RightShoulder
        {
          OFFSET -4.57 10.9462 -2.628
          CHANNELS 6 Xposition Yposition Zposition Zrotation Xrotation Yrotation
          JOINT RightArm
          {
            OFFSET -10.5928 -0.5248 -2.2321
            CHANNELS 6 Xposition Yposition Zposition Zrotation Xrotation Yrotation
            JOINT RightForeArm
            {
              OFFSET -27.8415 0 0
              CHANNELS 6 Xposition Yposition Zposition Zrotation Xrotation Yrotation
              JOINT RightHand
              {
                OFFSET -28.3288 0 0.0001
                CHANNELS 6 Xposition Yposition Zposition Zrotation Xrotation Yrotation
                JOINT RightHandPinky1
                {
                  OFFSET -8.0767 -0.4885 -3.806
                  CHANNELS 6 Xposition Yposition Zposition Zrotation Xrotation Yrotation
                  JOINT RightHandPinky2
                  {
                    OFFSET -3.6 0 0.0001
                    CHANNELS 6 Xposition Yposition Zposition Zrotation Xrotation Yrotation
                    JOINT RightHandPinky3
                    {
                      OFFSET -2.1142 0 0
                      CHANNELS 6 Xposition Yposition Zposition Zrotation Xrotation Yrotation
                      End Site
                      {
                        OFFSET -1.9757 0 0
                      }
                    }
                  }
                }
                JOINT RightHandRing1
                {
                  OFFSET -9.1036 -0.0439 -1.8651
                  CHANNELS 6 Xposition Yposition Zposition Zrotation Xrotation Yrotation
                  JOINT RightHandRing2
                  {
                    OFFSET -3.154 0 0
                    CHANNELS 6 Xposition Yposition Zposition Zrotation Xrotation Yrotation
                    JOINT RightHandRing3
                    {
                      OFFSET -2.9377 0 0
                      CHANNELS 6 Xposition Yposition Zposition Zrotation Xrotation Yrotation
                      End Site
                      {
                        OFFSET -2.6475 0 0
                      }
                    }
                  }
                }
                JOINT RightHandMiddle1
                {
                  OFFSET -9.5325 0 0
                  CHANNELS 6 Xposition Yposition Zposition Zrotation Xrotation Yrotation
                  JOINT RightHandMiddle2
                  {
                    OFFSET -3.6982 0 0
                    CHANNELS 6 Xposition Yposition Zposition Zrotation Xrotation Yrotation
                    JOINT RightHandMiddle3
                    {
                      OFFSET -2.9509 0 0
                      CHANNELS 6 Xposition Yposition Zposition Zrotation Xrotation Yrotation
                      End Site
                      {
                        OFFSET -2.8339 0 0.0001
                      }
                    }
                  }
                }
                JOINT RightHandIndex1
                {
                  OFFSET -9.1083 -0.5168 2.2601
                  CHANNELS 6 Xposition Yposition Zposition Zrotation Xrotation Yrotation
                  JOINT RightHandIndex2
                  {
                    OFFSET -3.6764 0 0
                    CHANNELS 6 Xposition Yposition Zposition Zrotation Xrotation Yrotation
                    JOINT RightHandIndex3
                    {
                      OFFSET -2.8831 0 0
                      CHANNELS 6 Xposition Yposition Zposition Zrotation Xrotation Yrotation
                      End Site
                      {
                        OFFSET -2.3927 0 0
                      }
                    }
                  }
                }
                JOINT RightHandThumb1
                {
                  OFFSET -2.4648 -1.5727 2.6826
                  CHANNELS 6 Xposition Yposition Zposition Zrotation Xrotation Yrotation
                  JOINT RightHandThumb2
                  {
                    OFFSET -3.2298 -1.8647 1.8647
                    CHANNELS 6 Xposition Yposition Zposition Zrotation Xrotation Yrotation
                    JOINT RightHandThumb3
                    {
                      OFFSET -2.6526 -1.5314 1.5314
                      CHANNELS 6 Xposition Yposition Zposition Zrotation Xrotation Yrotation
                      End Site
                      {
                        OFFSET -1.9546 -1.1285 1.1285
                      }
                    }
                  }
                }
              }
            }
          }
        }
      }
    }
  }
  JOINT LeftUpLeg
  {
    OFFSET 8.2078 -6.7517 -1.5996
    CHANNELS 6 Xposition Yposition Zposition Zrotation Xrotation Yrotation
    JOINT LeftLeg
    {
      OFFSET 0 -44.3705 0.2846
      CHANNELS 6 Xposition Yposition Zposition Zrotation Xrotation Yrotation
      JOINT LeftFoot
      {
        OFFSET 0 -44.4279 -2.9822
        CHANNELS 6 Xposition Yposition Zposition Zrotation Xrotation Yrotation
        JOINT LeftToeBase
        {
          OFFSET 0 -8.7287 10.7106
          CHANNELS 6 Xposition Yposition Zposition Zrotation Xrotation Yrotation
          End Site
          {
            OFFSET 0 -0.0007 9.2781
          }
        }
      }
    }
  }
  JOINT RightUpLeg
  {
    OFFSET -8.2078 -6.7517 -1.5996
    CHANNELS 6 Xposition Yposition Zposition Zrotation Xrotation Yrotation
    JOINT RightLeg
    {
      OFFSET 0 -44.3705 0.2862
      CHANNELS 6 Xposition Yposition Zposition Zrotation Xrotation Yrotation
      JOINT RightFoot
      {
        OFFSET 0 -44.4277 -2.9838
        CHANNELS 6 Xposition Yposition Zposition Zrotation Xrotation Yrotation
        JOINT RightToeBase
        {
          OFFSET 0 -8.7287 10.7106
          CHANNELS 6 Xposition Yposition Zposition Zrotation Xrotation Yrotation
          End Site
          {
            OFFSET 0 -0.0007 9.2781
          }
        }
      }
    }
  }
}
MOTION
Frames:	4
Frame Time:	0.0333333
0.474958 101.652 1.55445 -5.34696 -1.03647 1.48778 0 10.1816 0.1315 3.00585 1.23321 -1.26435 4.44089e-016 10.0835 -1.0008 5.94513 0.752186 0.187296 0 9.1 -1.3734 5.852 0.786763 0.704951 0 16.6717 -2.5162 -2.16432 1.05607 -0.265001 0 9.6179 1.685 -8.1429 1.4919 0.763161 0 17.8152 2.585 -1.73937e-016 -7.95139e-016 -7.95139e-016 3.0676 6.4095 9.2836 -1.73937e-016 -7.95139e-016 -7.95139e-016 -3.0676 6.4095 9.2835 -1.73937e-016 -7.95139e-016 -7.95139e-016 4.5704 10.946 -2.628 -4.91628 4.76796 -13.4059 10.5924 -0.5246 -2.2321 -83.4375 -3.03978 4.40124 27.8415 -0.0001 0 -0.000190531 -5.67628e-006 -14.5067 28.3288 0 -8.88178e-016 -10.6346 -27.7681 -1.25464 2.4661 -1.575 2.6824 11.4973 18.0473 -4.08188 3.2298 -1.8647 1.8647 -2.60666 -0.385968 32.7777 2.6526 -1.5315 1.5315 -0.357128 2.06029 9.32367 9.1093 -0.5171 2.2601 -7.82029 -0.300297 4.67049 3.6764 1.77636e-015 8.88178e-016 -20.5428 -0.627505 2.77063 2.8831 0 1.11022e-015 -10.1692 -0.109732 0.805557 9.5334 0 0 -15.6515 -1.50433 8.68077 3.6982 -1.33227e-015 -8.88178e-016 -33.3226 -1.42371 3.82458 2.9509 0 0 -12.2609 -0.148976 1.48565 9.1045 -0.0439 -1.8651 -26.3531 -2.9621 11.5656 3.154 3.55271e-015 0 -40.1169 -1.19449 4.0564 2.9377 7.10543e-015 0 -19.3347 -0.0921875 1.90338 8.0778 -0.4887 -3.8061 -35.4483 -5.01613 16.192 3.6 -3.55271e-015 -3.55271e-015 -45.5336 -1.94128 3.8197 2.1142 -1.42109e-014 -3.55271e-015 -20.5005 -0.542688 2.83389 -4.57 10.9462 -2.628 5.48165 4.80442 2.87905 -10.5928 -0.5248 -2.2321 67.3368 0.135383 1.37814 -27.8415 0 0 -8.22135e-006 -2.74721e-006 17.7366 -28.3288 0 0.0001 10.2635 -12.5926 -6.99996 -8.0767 -0.4885 -3.806 35.4485 -5.01601 -16.1931 -3.6 0 0.0001 45.5337 -1.93991 -3.81801 -2.1142 0 0 22.1247 -0.765435 0.0547841 -9.1036 -0.0439 -1.8651 26.3533 -2.96203 -11.5652 -3.154 3.55271e-015 8.88178e-016 40.117 -1.1943 -4.05588 -2.9377 7.10543e-015 1.77636e-015 17.8154 -0.13831 0.0900634 -9.5325 1.77636e-015 1.77636e-015 15.6516 -1.5043 -8.68055 -3.6982 3.55271e-015 6.66134e-016 33.3227 -1.42358 -3.82414 -2.9509 0 8.88178e-016 15.8919 -0.253351 -1.67826 -9.1083 -0.5168 2.2601 7.82035 -0.300292 -4.67039 -3.6764 1.33227e-015 0 20.5428 -0.62746 -2.77035 -2.8831 0 4.44089e-016 13.8441 -0.238508 -0.157474 -2.4648 -1.5727 2.6826 -11.4976 18.0469 4.0821 -3.2298 -1.8647 1.8647 2.60806 -0.386609 -32.7764 -2.6526 -1.5314 1.5314 1.10479 1.84593 -8.46827 8.2078 -6.7517 -1.5996 16.2653 -15.8794 15.7809 -3.55271e-015 -44.3705 0.2846 2.49658 22.4337 8.58654 0 -44.4279 -2.9822 -8.7714 -1.97886 3.06896 -1.77636e-015 -8.7287 10.7106 -1.15807e-006 -0.441965 8.70128e-006 -8.2078 -6.7517 -1.5996 10.5183 -2.47474 -4.58913 -1.77636e-015 -44.3705 0.2862 3.32886 12.1107 -5.79351 4.44089e-016 -44.4277 -2.9838 -7.87745 -9.87704 -0.339721 0 -8.7287 10.7106 2.09862e-006 -0.548655 -8.46464e-007 
0.788264 101.705 1.35055 -5.2187 -1.30698 1.328 0 10.1816 0.1315 2.93367 1.38358 -1.40564 8.88178e-016 10.0835 -1.0008 5.93182 0.814575 0.151917 1.77636e-015 9.1 -1.3734 5.83932 0.84899 0.668821 0 16.6717 -2.5162 -2.13842 0.902078 -0.307412 -3.55271e-015 9.6179 1.685 -8.22546 1.0642 0.562143 0 17.8152 2.585 -3.72721e-017 -7.95139e-016 1.98785e-016 3.0676 6.4095 9.2836 -3.72721e-017 -7.95139e-016 1.98785e-016 -3.0676 6.4095 9.2835 -3.72721e-017 -7.95139e-016 1.98785e-016 4.5704 10.946 -2.628 -5.88583 4.88779 -14.1164 10.5924 -0.5246 -2.2321 -80.9775 0.601435 5.00746 27.8415 -0.0001 7.10543e-015 -0.000231501 4.98976e-006 -17.0108 28.3288 -7.10543e-015 0 -10.9277 -26.002 -4.42343 2.4661 -1.575 2.6824 11.4973 18.0473 -4.08188 3.2298 -1.8647 1.8647 -2.60668 -0.385968 32.7778 2.6526 -1.5315 1.5315 -0.357157 2.06029 9.32366 9.1093 -0.5171 2.2601 -8.58191 -0.363015 4.74321 3.6764 -1.77636e-015 -1.77636e-015 -21.2849 -0.663855 2.837 2.8831 0 8.88178e-016 -10.8349 -0.12194 0.871414 9.5334 -3.55271e-015 0 -16.4085 -1.59666 8.7629 3.6982 1.83187e-015 4.44089e-016 -34.1114 -1.47836 3.88329 2.9509 0 -8.88178e-016 -12.9267 -0.164679 1.55006 9.1045 -0.0439 -1.8651 -27.1141 -3.06176 11.5618 3.154 0 0 -40.9263 -1.24436 4.11953 2.9377 7.10543e-015 0 -20.0795 -0.110217 1.97535 8.0778 -0.4887 -3.8061 -36.1801 -5.22786 16.2025 3.6 3.55271e-015 1.77636e-015 -46.3679 -2.00453 3.87457 2.1142 0 0 -21.245 -0.575195 2.90123 -4.57 10.9462 -2.628 7.0366 4.86038 3.51428 -10.5928 -0.5248 -2.2321 65.2065 3.16202 1.71703 -27.8415 -3.55271e-015 0 7.21045e-006 2.4632e-006 17.5861 -28.3288 0 0.0001 11.4498 -12.1521 -5.12562 -8.0767 -0.4885 -3.806 35.4485 -5.01601 -16.1931 -3.6 0 0.0001 45.5337 -1.93991 -3.81802 -2.1142 0 0 22.1247 -0.765435 0.0547847 -9.1036 -0.0439 -1.8651 26.3533 -2.96203 -11.5652 -3.154 -7.10543e-015 0 40.117 -1.1943 -4.05589 -2.9377 -7.10543e-015 0 17.8154 -0.13831 0.0900663 -9.5325 3.55271e-015 0 15.6516 -1.5043 -8.68055 -3.6982 5.32907e-015 4.44089e-016 33.3227 -1.42358 -3.82414 -2.9509 7.10543e-015 0 15.8919 -0.253351 -1.67826 -9.1083 -0.5168 2.2601 7.82035 -0.300291 -4.67039 -3.6764 6.88338e-015 0 20.5428 -0.62746 -2.77034 -2.8831 0 0 13.8441 -0.238508 -0.157474 -2.4648 -1.5727 2.6826 -11.4976 18.0469 4.0821 -3.2298 -1.8647 1.8647 2.60807 -0.38661 -32.7764 -2.6526 -1.5314 1.5314 1.10481 1.84593 -8.46826 8.2078 -6.7517 -1.5996 15.8023 -15.6218 15.5612 0 -44.3705 0.2846 2.62684 22.2945 8.86394 0 -44.4279 -2.9822 -8.63133 -1.89749 3.07883 0 -8.7287 10.7106 -2.76214e-006 -0.460958 6.46099e-007 -8.2078 -6.7517 -1.5996 10.1607 -2.43284 -4.53184 -1.9984e-015 -44.3705 0.2862 3.34887 12.3867 -5.60346 8.88178e-016 -44.4277 -2.9838 -7.70971 -9.84125 -0.458962 -4.44089e-016 -8.7287 10.7106 -3.5251e-007 -0.592868 -3.48148e-006 
1.15688 101.751 1.10564 -5.09373 -1.63227 1.26574 0 10.1816 0.1315 2.88236 1.64136 -1.45653 4.44089e-016 10.0835 -1.0008 5.91957 0.921363 0.135904 -1.77636e-015 9.1 -1.3734 5.82753 0.955674 0.651805 0 16.6717 -2.5162 -2.1103 0.668101 -0.383326 -3.55271e-015 9.6179 1.685 -8.25828 0.486494 0.203728 0 17.8152 2.585 -2.04997e-016 -3.97569e-016 9.93923e-017 3.0676 6.4095 9.2836 -2.04997e-016 -3.97569e-016 9.93923e-017 -3.0676 6.4095 9.2835 -2.04997e-016 -3.97569e-016 9.93923e-017 4.5704 10.946 -2.628 -6.55627 4.98323 -15.1007 10.5924 -0.5246 -2.2321 -78.6769 4.94699 4.74096 27.8415 -0.0001 -7.10543e-015 -0.000196579 7.2746e-007 -20.8634 28.3288 7.10543e-015 -4.44089e-016 -12.5947 -25.409 -8.16939 2.4661 -1.575 2.6824 11.4973 18.0473 -4.08189 3.2298 -1.8647 1.8647 -2.60668 -0.385973 32.7777 2.6526 -1.5315 1.5315 -0.357126 2.0603 9.32367 9.1093 -0.5171 2.2601 -10.6858 -0.541261 4.93971 3.6764 1.77636e-015 -3.55271e-015 -23.3374 -0.768822 3.01808 2.8831 0 -1.77636e-015 -12.6838 -0.159851 1.05353 9.5334 -3.55271e-015 0 -18.5 -1.85555 8.97967 3.6982 8.88178e-016 0 -36.2882 -1.63332 4.04138 2.9509 7.10543e-015 4.44089e-016 -14.7754 -0.21221 1.72795 9.1045 -0.0439 -1.8651 -29.2161 -3.33964 11.5455 3.154 0 8.88178e-016 -43.1582 -1.38648 4.28992 2.9377 -1.42109e-014 0 -22.1391 -0.164938 2.17309 8.0778 -0.4887 -3.8061 -38.2038 -5.81352 16.2175 3.6 7.10543e-015 0 -48.666 -2.18281 4.0209 2.1142 0 0 -23.3038 -0.669601 3.08518 -4.57 10.9462 -2.628 8.17274 4.96619 4.32254 -10.5928 -0.5248 -2.2321 61.8195 9.1115 2.40393 -27.8415 0 0 -3.75659e-005 -9.11524e-006 18.3028 -28.3288 7.10543e-015 0.0001 16.2619 -13.6183 -3.77321 -8.0767 -0.4885 -3.806 35.4485 -5.01601 -16.1931 -3.6 0 0.0001 45.5337 -1.93991 -3.81801 -2.1142 0 0 22.1247 -0.765435 0.0547805 -9.1036 -0.0439 -1.8651 26.3533 -2.96203 -11.5652 -3.154 0 0 40.117 -1.1943 -4.05588 -2.9377 0 -1.77636e-015 17.8154 -0.138311 0.0900643 -9.5325 -2.66454e-015 -1.77636e-015 15.6517 -1.5043 -8.68055 -3.6982 1.77636e-015 -4.44089e-016 33.3227 -1.42358 -3.82414 -2.9509 -1.42109e-014 0 15.8919 -0.253351 -1.67826 -9.1083 -0.5168 2.2601 7.82036 -0.300292 -4.67039 -3.6764 1.33227e-015 8.88178e-016 20.5428 -0.627459 -2.77034 -2.8831 3.55271e-015 4.44089e-016 13.8441 -0.238507 -0.157474 -2.4648 -1.5727 2.6826 -11.4976 18.0469 4.0821 -3.2298 -1.8647 1.8647 2.60806 -0.386613 -32.7764 -2.6526 -1.5314 1.5314 1.10477 1.84593 -8.46827 8.2078 -6.7517 -1.5996 15.2606 -15.4045 15.2809 0 -44.3705 0.2846 2.83269 22.2071 8.97631 0 -44.4279 -2.9822 -8.47128 -1.83727 3.18928 1.77636e-015 -8.7287 10.7106 -1.19096e-006 -0.448569 6.78875e-006 -8.2078 -6.7517 -1.5996 9.77849 -2.43106 -4.49777 -5.55112e-016 -44.3705 0.2862 3.35929 12.784 -5.47234 1.77636e-015 -44.4277 -2.9838 -7.49604 -9.84758 -0.601499 0 -8.7287 10.7106 1.39186e-006 -0.642029 1.15022e-006 
1.59068 101.791 0.810721 -4.98236 -2.01777 1.32082 0 10.1816 0.1315 2.85879 2.0067 -1.41583 4.44089e-016 10.0835 -1.0008 5.9123 1.06887 0.139883 -1.77636e-015 9.1 -1.3734 5.82059 1.10312 0.654608 0 16.6717 -2.5162 -2.07865 0.370857 -0.488821 0 9.6179 1.685 -8.22126 -0.231221 -0.297342 -4.44089e-016 17.8152 2.585 9.93923e-017 -7.95139e-016 -9.93923e-017 3.0676 6.4095 9.2836 9.93923e-017 -7.95139e-016 -9.93923e-017 -3.0676 6.4095 9.2835 9.93923e-017 -7.95139e-016 -9.93923e-017 4.5704 10.946 -2.628 -7.14361 5.08211 -16.3828 10.5924 -0.5246 -2.2321 -75.8181 8.81672 3.65247 27.8415 -0.0001 0 -0.00021021 6.05418e-007 -25.5276 28.3288 7.10543e-015 8.88178e-016 -15.6413 -25.7367 -10.5794 2.4661 -1.575 2.6824 11.4973 18.0473 -4.08189 3.2298 -1.8647 1.8647 -2.60668 -0.385981 32.7777 2.6526 -1.5315 1.5315 -0.357135 2.06029 9.32367 9.1093 -0.5171 2.2601 -13.8605 -0.823669 5.22361 3.6764 1.77636e-015 0 -26.4388 -0.939592 3.28432 2.8831 7.10543e-015 -3.55271e-015 -15.4931 -0.228651 1.32769 9.5334 0 -3.55271e-015 -21.6573 -2.25622 9.27994 3.6982 3.55271e-015 0 -39.5687 -1.87792 4.26825 2.9509 -7.10543e-015 0 -17.5845 -0.295357 1.9951 9.1045 -0.0439 -1.8651 -32.3885 -3.76528 11.5004 3.154 3.55271e-015 -1.77636e-015 -46.518 -1.61269 4.53572 2.9377 0 0 -25.251 -0.261019 2.46784 8.0778 -0.4887 -3.8061 -41.2634 -6.69787 16.2007 3.6 -7.10543e-015 -4.44089e-016 -52.1207 -2.4615 4.22715 2.1142 1.42109e-014 8.88178e-016 -26.4145 -0.824649 3.35643 -4.57 10.9462 -2.628 9.08098 5.08134 5.26575 -10.5928 -0.5248 -2.2321 57.4043 15.627 3.63611 -27.8415 0 -7.10543e-015 2.92241e-006 9.63667e-006 19.3213 -28.3288 0 0.0001 23.5302 -15.5338 -3.85329 -8.0767 -0.4885 -3.806 35.4485 -5.01601 -16.1931 -3.6 0 0.0001 45.5337 -1.93991 -3.81802 -2.1142 -1.42109e-014 -3.55271e-015 22.1247 -0.765433 0.0547882 -9.1036 -0.0439 -1.8651 26.3533 -2.96203 -11.5652 -3.154 0 -1.77636e-015 40.117 -1.1943 -4.05589 -2.9377 -1.42109e-014 1.77636e-015 17.8154 -0.138309 0.0900611 -9.5325 -7.77156e-016 0 15.6516 -1.5043 -8.68055 -3.6982 0 0 33.3227 -1.42358 -3.82415 -2.9509 -7.10543e-015 -1.77636e-015 15.8919 -0.253349 -1.67826 -9.1083 -0.5168 2.2601 7.82035 -0.300291 -4.67039 -3.6764 1.77636e-015 -8.88178e-016 20.5428 -0.62746 -2.77034 -2.8831 -1.42109e-014 8.88178e-016 13.8441 -0.238507 -0.157475 -2.4648 -1.5727 2.6826 -11.4976 18.0469 4.0821 -3.2298 -1.8647 1.8647 2.60804 -0.386601 -32.7764 -2.6526 -1.5314 1.5314 1.1048 1.84594 -8.46827 8.2078 -6.7517 -1.5996 14.6622 -15.2233 14.9768 -3.55271e-015 -44.3705 0.2846 3.09042 22.1643 8.90086 -3.55271e-015 -44.4279 -2.9822 -8.26411 -1.79075 3.37737 0 -8.7287 10.7106 2.15234e-006 -0.424131 -1.26645e-006 -8.2078 -6.7517 -1.5996 9.38268 -2.4497 -4.46864 -9.99201e-016 -44.3705 0.2862 3.35926 13.2607 -5.43916 1.77636e-015 -44.4277 -2.9838 -7.2269 -9.87256 -0.759928 -4.44089e-016 -8.7287 10.7106 -3.61976e-007 -0.710154 -5.90545e-007 
